<mxfile host="app.diagrams.net" modified="2023-09-21T08:05:19.963Z" agent="Mozilla/5.0 (Windows NT 10.0; Win64; x64) AppleWebKit/537.36 (KHTML, like Gecko) Chrome/116.0.0.0 Safari/537.36 Edg/116.0.1938.81" etag="zQjsK1Ytui63x96saMLi" version="21.6.8" type="device">
  <diagram name="Страница — 1" id="ELz9U-Jr5-6MgNVhLvK-">
    <mxGraphModel dx="1042" dy="569" grid="1" gridSize="10" guides="1" tooltips="1" connect="1" arrows="1" fold="1" page="1" pageScale="1" pageWidth="827" pageHeight="1169" math="0" shadow="0">
      <root>
        <mxCell id="0" />
        <mxCell id="1" parent="0" />
        <mxCell id="A4HGKn2kcgTVfE6wWV2A-7" style="edgeStyle=orthogonalEdgeStyle;rounded=0;orthogonalLoop=1;jettySize=auto;html=1;exitX=0.5;exitY=1;exitDx=0;exitDy=0;entryX=0.5;entryY=0;entryDx=0;entryDy=0;" edge="1" parent="1" source="A4HGKn2kcgTVfE6wWV2A-1" target="A4HGKn2kcgTVfE6wWV2A-2">
          <mxGeometry relative="1" as="geometry" />
        </mxCell>
        <mxCell id="A4HGKn2kcgTVfE6wWV2A-1" value="тут пишем что то" style="rounded=0;whiteSpace=wrap;html=1;" vertex="1" parent="1">
          <mxGeometry x="310" y="90" width="120" height="60" as="geometry" />
        </mxCell>
        <mxCell id="A4HGKn2kcgTVfE6wWV2A-5" style="edgeStyle=orthogonalEdgeStyle;rounded=0;orthogonalLoop=1;jettySize=auto;html=1;exitX=0;exitY=0.5;exitDx=0;exitDy=0;entryX=0.5;entryY=0;entryDx=0;entryDy=0;" edge="1" parent="1" source="A4HGKn2kcgTVfE6wWV2A-2" target="A4HGKn2kcgTVfE6wWV2A-4">
          <mxGeometry relative="1" as="geometry" />
        </mxCell>
        <mxCell id="A4HGKn2kcgTVfE6wWV2A-6" style="edgeStyle=orthogonalEdgeStyle;rounded=0;orthogonalLoop=1;jettySize=auto;html=1;exitX=1;exitY=0.5;exitDx=0;exitDy=0;entryX=0.59;entryY=0.033;entryDx=0;entryDy=0;entryPerimeter=0;" edge="1" parent="1" source="A4HGKn2kcgTVfE6wWV2A-2" target="A4HGKn2kcgTVfE6wWV2A-3">
          <mxGeometry relative="1" as="geometry" />
        </mxCell>
        <mxCell id="A4HGKn2kcgTVfE6wWV2A-2" value="тут типа условие" style="rhombus;whiteSpace=wrap;html=1;" vertex="1" parent="1">
          <mxGeometry x="330" y="200" width="80" height="80" as="geometry" />
        </mxCell>
        <mxCell id="A4HGKn2kcgTVfE6wWV2A-3" value="делаем если да" style="rounded=0;whiteSpace=wrap;html=1;" vertex="1" parent="1">
          <mxGeometry x="460" y="300" width="120" height="60" as="geometry" />
        </mxCell>
        <mxCell id="A4HGKn2kcgTVfE6wWV2A-4" value="делаем если нет" style="rounded=0;whiteSpace=wrap;html=1;" vertex="1" parent="1">
          <mxGeometry x="120" y="300" width="120" height="60" as="geometry" />
        </mxCell>
      </root>
    </mxGraphModel>
  </diagram>
</mxfile>
